<svg xmlns="http://www.w3.org/2000/svg" viewBox="0 0 512 512">
  <g>
    <g>
      <path d="M80,16V496H432V16ZM399.71,464.38h-288v-416h80v-32h128v32h80Z" fill="#92a3a6" id="id_101"></path>
      <rect x="143.71" y="272.38" width="64" height="64" fill="#92a4a8" id="id_102"></rect>
      <rect x="143.71" y="368.38" width="64" height="64" fill="#94a5a8" id="id_103"></rect>
      <polygon points="199.71 160.38 311.71 160.38 255.71 112.38 199.71 160.38" fill="#93a7ab" id="id_104"></polygon>
      <rect x="239.71" y="184.38" width="32" height="40" fill="#90a4a8" id="id_105"></rect>
    </g>
    <g>
      <path d="M136,272v64a8,8,0,0,0,8,8h64a8,8,0,0,0,8-8V272a8,8,0,0,0-8-8H144A8,8,0,0,0,136,272Zm16,8h44.686L176,300.687l-2.343-2.344a8,8,0,0,0-11.314,11.314l8,8a8,8,0,0,0,11.314,0L200,299.314V328H152Z" fill="#031114" id="id_106"></path>
      <path d="M232,272a8,8,0,0,0,8,8H368a8,8,0,0,0,0-16H240A8,8,0,0,0,232,272Z" fill="#03161a" id="id_107"></path>
      <path d="M368,296H240a8,8,0,0,0,0,16H368a8,8,0,0,0,0-16Z" fill="#031114" id="id_108"></path>
      <path d="M240,344h64a8,8,0,0,0,0-16H240a8,8,0,0,0,0,16Z" fill="#031417" id="id_109"></path>
      <path d="M216,376v-8a8,8,0,0,0-8-8H144a8,8,0,0,0-8,8v64a8,8,0,0,0,8,8h64a8,8,0,0,0,8-8V376ZM152,424V376h44.686L176,396.687l-2.343-2.344a8,8,0,0,0-11.314,11.314l8,8a8,8,0,0,0,11.314,0L200,395.314V424Z" fill="#02161a" id="id_110"></path>
      <path d="M368,360H240a8,8,0,0,0,0,16H368a8,8,0,0,0,0-16Z" fill="#02161a" id="id_111"></path>
      <path d="M368,392H240a8,8,0,0,0,0,16H368a8,8,0,0,0,0-16Z" fill="#031114" id="id_112"></path>
      <path d="M304,424H240a8,8,0,0,0,0,16h64a8,8,0,0,0,0-16Z" fill="#020f12" id="id_113"></path>
      <path d="M432,8H80a8,8,0,0,0-8,8V496a8,8,0,0,0,8,8H432a8,8,0,0,0,8-8V16A8,8,0,0,0,432,8ZM200,24H312V60a12.01,12.01,0,0,1-12,12H212a12.01,12.01,0,0,1-12-12Zm12,64h88a28.031,28.031,0,0,0,28-28V56h64V456H120V56h64v4A28.031,28.031,0,0,0,212,88ZM424,488H88V24h96V40H112a8,8,0,0,0-8,8V464a8,8,0,0,0,8,8H400a8,8,0,0,0,8-8V48a8,8,0,0,0-8-8H328V24h96Z" fill="#031114" id="id_114"></path>
      <path d="M312,216h-8V168h8a8,8,0,0,0,5.21-14.07l-56-48a8.005,8.005,0,0,0-10.42,0l-56,48A8,8,0,0,0,200,168h8v48h-8a8,8,0,0,0,0,16H312a8,8,0,0,0,0-16Zm-48,0H248V192h16Zm24,0h-8V184a8,8,0,0,0-8-8H240a8,8,0,0,0-8,8v32h-8V168h64Zm-66.37-64L256,122.54,290.37,152Z" fill="#061b1f" id="id_115"></path>
    </g>
  </g>
</svg>