<svg xmlns="http://www.w3.org/2000/svg" viewBox="0 0 512 512">
  <g>
    <g>
      <rect x="103.71" y="56.38" width="304" height="32" fill="#9ab0b5" id="id_101"></rect>
      <rect x="15.71" y="248.38" width="104" height="32" fill="#9aaeb3" id="id_102"></rect>
      <rect x="391.71" y="248.38" width="104" height="32" fill="#9ab3b8" id="id_103"></rect>
      <rect x="151.71" y="120.37" width="208" height="48" fill="#9fb7bd" id="id_104"></rect>
      <rect x="151.71" y="200.37" width="208" height="48" fill="#a1b8bd" id="id_105"></rect>
      <polygon points="391.71 320.38 359.71 320.38 359.71 280.38 151.71 280.38 151.71 328.38 271.71 328.38 271.71 416.38 391.71 416.38 479.71 416.38 495.71 416.38 495.71 320.38 479.71 320.38 391.71 320.38" fill="#a0b9bf" id="id_106"></polygon>
    </g>
    <g>
      <path d="M368,352a8,8,0,0,0,0-16H344a8,8,0,0,0-8,8v48a8,8,0,0,0,8,8h24a8,8,0,0,0,0-16H352v-8h16a8,8,0,0,0,0-16H352v-8Z" fill="#020d0f" id="id_107"></path>
      <path d="M416,336a8,8,0,0,0-8,8v14.111l-8.845-17.689A8,8,0,0,0,384,344v48a8,8,0,0,0,16,0V377.889l8.845,17.689A8,8,0,0,0,424,392V344A8,8,0,0,0,416,336Z" fill="#04161a" id="id_108"></path>
      <path d="M472,336H440a8,8,0,0,0,0,16h8v40a8,8,0,0,0,16,0V352h8a8,8,0,0,0,0-16Z" fill="#031317" id="id_109"></path>
      <path d="M496,288a8,8,0,0,0,8-8V248a8,8,0,0,0-8-8H400V96h8a8,8,0,0,0,8-8V56a8,8,0,0,0-8-8H104a8,8,0,0,0-8,8V88a8,8,0,0,0,8,8h8V240H16a8,8,0,0,0-8,8v32a8,8,0,0,0,8,8h8V456a8,8,0,0,0,8,8H480a8,8,0,0,0,8-8V424h8a8,8,0,0,0,8-8V320a8,8,0,0,0-8-8h-8V288ZM112,448H40V288h72Zm0-176H24V256h88Zm0-208H400V80H112ZM400,288h72v24H400ZM360,448H128V96H384V312H368V280a8,8,0,0,0-8-8H152a8,8,0,0,0-8,8v48a8,8,0,0,0,8,8H264v80a8,8,0,0,0,8,8h88Zm-8-160v24H272a8,8,0,0,0-8,8H160V288Zm40,160H376V424h16Zm80,0H408V424h64Zm16-40H280V328H488ZM400,272V256h88v16Z" fill="#021114" id="id_110"></path>
      <path d="M328,368V344a8,8,0,0,0-8-8H296a8,8,0,0,0-8,8v48a8,8,0,0,0,16,0v-4.69l10.34,10.35a8,8,0,0,0,11.32-11.32L315.31,376H320A8,8,0,0,0,328,368Zm-16-8h-8v-8h8Z" fill="#04161a" id="id_111"></path>
      <path d="M152,176H360a8,8,0,0,0,8-8V120a8,8,0,0,0-8-8H152a8,8,0,0,0-8,8v48A8,8,0,0,0,152,176Zm8-48H352v32H160Z" fill="#04181c" id="id_112"></path>
      <path d="M152,256H360a8,8,0,0,0,8-8V200a8,8,0,0,0-8-8H152a8,8,0,0,0-8,8v48A8,8,0,0,0,152,256Zm8-48H352v32H160Z" fill="#020d0f" id="id_113"></path>
    </g>
  </g>
</svg>